<mxfile host="app.diagrams.net" agent="Mozilla/5.0 (X11; Linux x86_64) AppleWebKit/537.36 (KHTML, like Gecko) Chrome/141.0.0.0 Safari/537.36" version="28.2.7">
  <diagram name="Página-1" id="2kmu_jwdTDRvYda7qhFD">
    <mxGraphModel grid="1" page="1" gridSize="10" guides="1" tooltips="1" connect="1" arrows="1" fold="1" pageScale="1" pageWidth="827" pageHeight="1169" math="0" shadow="0">
      <root>
        <mxCell id="0" />
        <mxCell id="1" parent="0" />
        <mxCell id="Y8lvot4BdXGDz-C8_BpI-1" value="&lt;font style=&quot;font-size: 15px;&quot;&gt;Pessoa={&lt;u&gt;ID,&lt;/u&gt;&amp;nbsp;CPF*, Rg*, Nome*, Contato, Cidade, Bairro, Rua, Número, Fator_RH*, Fator_ABO*, Fator_Ee*, Fator_Cc*, Fator_K*}&amp;nbsp;&lt;/font&gt;" style="text;html=1;align=center;verticalAlign=middle;resizable=0;points=[];autosize=1;strokeColor=none;fillColor=none;" vertex="1" parent="1">
          <mxGeometry x="20" y="42.25" width="890" height="30" as="geometry" />
        </mxCell>
        <mxCell id="Y8lvot4BdXGDz-C8_BpI-10" value="" style="endArrow=none;html=1;rounded=0;shape=link;strokeWidth=1;startSize=1;width=3;" edge="1" parent="1">
          <mxGeometry relative="1" as="geometry">
            <mxPoint x="120" y="72.25" as="sourcePoint" />
            <mxPoint x="152" y="72.62" as="targetPoint" />
            <Array as="points" />
          </mxGeometry>
        </mxCell>
        <mxCell id="Y8lvot4BdXGDz-C8_BpI-14" value="&lt;font style=&quot;font-size: 15px;&quot;&gt;Profissional={&lt;u&gt;ID&lt;/u&gt;, Local*}&lt;/font&gt;" style="text;html=1;align=center;verticalAlign=middle;resizable=0;points=[];autosize=1;strokeColor=none;fillColor=none;" vertex="1" parent="1">
          <mxGeometry x="40" y="98" width="180" height="30" as="geometry" />
        </mxCell>
        <mxCell id="Y8lvot4BdXGDz-C8_BpI-15" value="" style="edgeStyle=segmentEdgeStyle;endArrow=classic;html=1;curved=0;rounded=0;endSize=8;startSize=8;" edge="1" parent="1" source="Y8lvot4BdXGDz-C8_BpI-14" target="Y8lvot4BdXGDz-C8_BpI-1">
          <mxGeometry width="50" height="50" relative="1" as="geometry">
            <mxPoint x="190" y="90" as="sourcePoint" />
            <mxPoint x="240" y="160" as="targetPoint" />
            <Array as="points">
              <mxPoint x="140" y="90" />
              <mxPoint x="100" y="90" />
            </Array>
          </mxGeometry>
        </mxCell>
        <mxCell id="Y8lvot4BdXGDz-C8_BpI-16" value="&lt;font style=&quot;font-size: 15px;&quot;&gt;Doador={&lt;u&gt;ID&lt;/u&gt;, Última_doação, Peso}&amp;nbsp;&lt;/font&gt;" style="text;html=1;align=center;verticalAlign=middle;resizable=0;points=[];autosize=1;strokeColor=none;fillColor=none;" vertex="1" parent="1">
          <mxGeometry x="419" y="98" width="260" height="30" as="geometry" />
        </mxCell>
        <mxCell id="Y8lvot4BdXGDz-C8_BpI-17" value="" style="edgeStyle=segmentEdgeStyle;endArrow=classic;html=1;curved=0;rounded=0;endSize=8;startSize=8;" edge="1" parent="1" target="Y8lvot4BdXGDz-C8_BpI-1">
          <mxGeometry width="50" height="50" relative="1" as="geometry">
            <mxPoint x="500" y="100" as="sourcePoint" />
            <mxPoint x="290" y="50" as="targetPoint" />
            <Array as="points">
              <mxPoint x="500" y="90" />
              <mxPoint x="100" y="90" />
            </Array>
          </mxGeometry>
        </mxCell>
        <mxCell id="Y8lvot4BdXGDz-C8_BpI-18" value="&lt;font style=&quot;font-size: 15px;&quot;&gt;Receptor={&lt;u&gt;ID&lt;/u&gt;}&lt;/font&gt;" style="text;html=1;align=center;verticalAlign=middle;resizable=0;points=[];autosize=1;strokeColor=none;fillColor=none;" vertex="1" parent="1">
          <mxGeometry x="1605" y="98" width="120" height="30" as="geometry" />
        </mxCell>
        <mxCell id="Y8lvot4BdXGDz-C8_BpI-19" value="" style="edgeStyle=segmentEdgeStyle;endArrow=classic;html=1;curved=0;rounded=0;endSize=8;startSize=8;exitX=0.755;exitY=0.06;exitDx=0;exitDy=0;exitPerimeter=0;" edge="1" parent="1" source="Y8lvot4BdXGDz-C8_BpI-18" target="Y8lvot4BdXGDz-C8_BpI-1">
          <mxGeometry width="50" height="50" relative="1" as="geometry">
            <mxPoint x="920" y="150" as="sourcePoint" />
            <mxPoint x="970" y="100" as="targetPoint" />
            <Array as="points">
              <mxPoint x="1696" y="90" />
              <mxPoint x="100" y="90" />
            </Array>
          </mxGeometry>
        </mxCell>
        <mxCell id="Y8lvot4BdXGDz-C8_BpI-20" value="&lt;font style=&quot;font-size: 15px;&quot;&gt;Doação={&lt;u&gt;ID&lt;/u&gt;,&amp;nbsp;Doador*, Hemonúcleo*, Data*, Profissional*}&lt;/font&gt;" style="text;html=1;align=center;verticalAlign=middle;resizable=0;points=[];autosize=1;strokeColor=none;fillColor=none;" vertex="1" parent="1">
          <mxGeometry x="110" y="210" width="410" height="30" as="geometry" />
        </mxCell>
        <mxCell id="Y8lvot4BdXGDz-C8_BpI-22" value="" style="edgeStyle=segmentEdgeStyle;endArrow=classic;html=1;curved=0;rounded=0;endSize=8;startSize=8;" edge="1" parent="1" source="Y8lvot4BdXGDz-C8_BpI-20" target="Y8lvot4BdXGDz-C8_BpI-16">
          <mxGeometry width="50" height="50" relative="1" as="geometry">
            <mxPoint x="235" y="201" as="sourcePoint" />
            <mxPoint x="564.8800000000001" y="137.91000000000003" as="targetPoint" />
            <Array as="points">
              <mxPoint x="235" y="190" />
              <mxPoint x="503" y="190" />
            </Array>
          </mxGeometry>
        </mxCell>
        <mxCell id="Y8lvot4BdXGDz-C8_BpI-34" value="" style="edgeStyle=segmentEdgeStyle;endArrow=classic;html=1;curved=0;rounded=0;endSize=8;startSize=8;endFill=1;" edge="1" parent="1" target="Y8lvot4BdXGDz-C8_BpI-14">
          <mxGeometry width="50" height="50" relative="1" as="geometry">
            <mxPoint x="470" y="180" as="sourcePoint" />
            <mxPoint x="250" y="160" as="targetPoint" />
            <Array as="points">
              <mxPoint x="470" y="170" />
              <mxPoint x="150" y="170" />
            </Array>
          </mxGeometry>
        </mxCell>
        <mxCell id="Y8lvot4BdXGDz-C8_BpI-35" value="&lt;font style=&quot;font-size: 15px;&quot;&gt;Bolsa_de_sangue={&lt;u&gt;Doação, Número&lt;/u&gt;, Volume_real*, Local_atual*,&amp;nbsp;&lt;/font&gt;&lt;span style=&quot;font-size: 15px;&quot;&gt;&lt;font&gt;&lt;font style=&quot;&quot;&gt;Fator_RH*, Fator_ABO*, Fator_Ee*, Fator_Cc*, Fator_K*&lt;/font&gt;,&lt;/font&gt; Solicitação, Socorrimento&lt;/span&gt;&lt;span style=&quot;font-size: 15px;&quot;&gt;}&lt;/span&gt;" style="text;html=1;align=center;verticalAlign=middle;resizable=0;points=[];autosize=1;strokeColor=none;fillColor=none;" vertex="1" parent="1">
          <mxGeometry x="520" y="130" width="1030" height="30" as="geometry" />
        </mxCell>
        <mxCell id="Y8lvot4BdXGDz-C8_BpI-36" value="" style="endArrow=none;html=1;rounded=0;shape=link;strokeWidth=1;startSize=1;width=3;entryX=0.747;entryY=0.93;entryDx=0;entryDy=0;entryPerimeter=0;exitX=0.247;exitY=0.908;exitDx=0;exitDy=0;exitPerimeter=0;" edge="1" parent="1" source="Y8lvot4BdXGDz-C8_BpI-20" target="Y8lvot4BdXGDz-C8_BpI-20">
          <mxGeometry relative="1" as="geometry">
            <mxPoint x="270" y="239" as="sourcePoint" />
            <mxPoint x="287" y="239.8" as="targetPoint" />
            <Array as="points" />
          </mxGeometry>
        </mxCell>
        <mxCell id="Y8lvot4BdXGDz-C8_BpI-37" value="" style="edgeStyle=segmentEdgeStyle;endArrow=classic;html=1;curved=0;rounded=0;endSize=8;startSize=8;exitX=0.1;exitY=0.5;exitDx=0;exitDy=0;exitPerimeter=0;" edge="1" parent="1" source="Y8lvot4BdXGDz-C8_BpI-50" target="Y8lvot4BdXGDz-C8_BpI-20">
          <mxGeometry width="50" height="50" relative="1" as="geometry">
            <mxPoint x="735" y="250" as="sourcePoint" />
            <mxPoint x="695" y="260" as="targetPoint" />
            <Array as="points">
              <mxPoint x="695" y="280" />
              <mxPoint x="200" y="280" />
            </Array>
          </mxGeometry>
        </mxCell>
        <mxCell id="Y8lvot4BdXGDz-C8_BpI-38" value="&lt;font style=&quot;font-size: 15px;&quot;&gt;Hemonúcleo = {&lt;u&gt;ID&lt;/u&gt;}&lt;/font&gt;" style="text;html=1;align=center;verticalAlign=middle;resizable=0;points=[];autosize=1;strokeColor=none;fillColor=none;" vertex="1" parent="1">
          <mxGeometry x="130" y="310" width="150" height="30" as="geometry" />
        </mxCell>
        <mxCell id="Y8lvot4BdXGDz-C8_BpI-40" value="" style="curved=1;endArrow=none;html=1;rounded=0;endFill=0;" edge="1" parent="1">
          <mxGeometry width="50" height="50" relative="1" as="geometry">
            <mxPoint x="310" y="300" as="sourcePoint" />
            <mxPoint x="310" y="270" as="targetPoint" />
            <Array as="points">
              <mxPoint x="385" y="290" />
            </Array>
          </mxGeometry>
        </mxCell>
        <mxCell id="Y8lvot4BdXGDz-C8_BpI-41" value="" style="endArrow=none;html=1;rounded=0;entryX=0.1;entryY=0.5;entryDx=0;entryDy=0;entryPerimeter=0;" edge="1" parent="1" target="Y8lvot4BdXGDz-C8_BpI-47">
          <mxGeometry width="50" height="50" relative="1" as="geometry">
            <mxPoint x="310" y="270" as="sourcePoint" />
            <mxPoint x="345" y="250" as="targetPoint" />
          </mxGeometry>
        </mxCell>
        <mxCell id="Y8lvot4BdXGDz-C8_BpI-47" value="" style="shape=curlyBracket;whiteSpace=wrap;html=1;rounded=1;labelPosition=left;verticalLabelPosition=middle;align=right;verticalAlign=middle;direction=north;" vertex="1" parent="1">
          <mxGeometry x="275" y="250" width="80" height="10" as="geometry" />
        </mxCell>
        <mxCell id="Y8lvot4BdXGDz-C8_BpI-49" value="" style="endArrow=classic;html=1;rounded=0;endFill=1;entryX=0.844;entryY=0.096;entryDx=0;entryDy=0;entryPerimeter=0;" edge="1" parent="1" target="Y8lvot4BdXGDz-C8_BpI-38">
          <mxGeometry width="50" height="50" relative="1" as="geometry">
            <mxPoint x="310" y="300" as="sourcePoint" />
            <mxPoint x="425" y="310" as="targetPoint" />
          </mxGeometry>
        </mxCell>
        <mxCell id="Y8lvot4BdXGDz-C8_BpI-50" value="" style="shape=curlyBracket;whiteSpace=wrap;html=1;rounded=1;labelPosition=left;verticalLabelPosition=middle;align=right;verticalAlign=middle;direction=north;" vertex="1" parent="1">
          <mxGeometry x="670" y="160" width="50" height="10" as="geometry" />
        </mxCell>
        <mxCell id="Y8lvot4BdXGDz-C8_BpI-53" value="" style="curved=1;endArrow=none;html=1;rounded=0;endFill=0;" edge="1" parent="1">
          <mxGeometry width="50" height="50" relative="1" as="geometry">
            <mxPoint x="190" y="190" as="sourcePoint" />
            <mxPoint x="190" y="160" as="targetPoint" />
            <Array as="points">
              <mxPoint x="210" y="180" />
            </Array>
          </mxGeometry>
        </mxCell>
        <mxCell id="Y8lvot4BdXGDz-C8_BpI-54" value="" style="endArrow=none;html=1;rounded=0;" edge="1" parent="1">
          <mxGeometry width="50" height="50" relative="1" as="geometry">
            <mxPoint x="190" y="160" as="sourcePoint" />
            <mxPoint x="190" y="126" as="targetPoint" />
          </mxGeometry>
        </mxCell>
        <mxCell id="Y8lvot4BdXGDz-C8_BpI-55" value="&lt;span style=&quot;font-size: 15px;&quot;&gt;Local={&lt;u&gt;ID&lt;/u&gt;, CNPJ/Placa*&lt;u&gt;,&lt;/u&gt;&amp;nbsp;Cidade, Bairro, Rua, Número, Capacidade, Tipo*}&amp;nbsp;&lt;/span&gt;" style="text;html=1;align=center;verticalAlign=middle;resizable=0;points=[];autosize=1;strokeColor=none;fillColor=none;" vertex="1" parent="1">
          <mxGeometry x="10" y="380" width="530" height="30" as="geometry" />
        </mxCell>
        <mxCell id="Y8lvot4BdXGDz-C8_BpI-57" value="" style="edgeStyle=segmentEdgeStyle;endArrow=classic;html=1;curved=0;rounded=0;endSize=8;startSize=8;" edge="1" parent="1" target="Y8lvot4BdXGDz-C8_BpI-55">
          <mxGeometry width="50" height="50" relative="1" as="geometry">
            <mxPoint x="260" y="340" as="sourcePoint" />
            <mxPoint x="330" y="380" as="targetPoint" />
            <Array as="points">
              <mxPoint x="260" y="360" />
              <mxPoint x="90" y="360" />
            </Array>
          </mxGeometry>
        </mxCell>
        <mxCell id="Y8lvot4BdXGDz-C8_BpI-62" value="&lt;font style=&quot;font-size: 15px;&quot;&gt;Hospital={&lt;u&gt;ID&lt;/u&gt;}&lt;/font&gt;" style="text;html=1;align=center;verticalAlign=middle;resizable=0;points=[];autosize=1;strokeColor=none;fillColor=none;" vertex="1" parent="1">
          <mxGeometry x="770" y="300" width="110" height="30" as="geometry" />
        </mxCell>
        <mxCell id="Y8lvot4BdXGDz-C8_BpI-63" value="&lt;font style=&quot;font-size: 15px;&quot;&gt;Ambulância={&lt;u&gt;ID,&lt;/u&gt;&amp;nbsp;CRV*, Sede}&lt;/font&gt;" style="text;html=1;align=center;verticalAlign=middle;resizable=0;points=[];autosize=1;strokeColor=none;fillColor=none;" vertex="1" parent="1">
          <mxGeometry x="1110" y="310" width="220" height="30" as="geometry" />
        </mxCell>
        <mxCell id="Y8lvot4BdXGDz-C8_BpI-64" value="" style="edgeStyle=segmentEdgeStyle;endArrow=classic;html=1;curved=0;rounded=0;endSize=8;startSize=8;" edge="1" parent="1">
          <mxGeometry width="50" height="50" relative="1" as="geometry">
            <mxPoint x="190" y="190" as="sourcePoint" />
            <mxPoint x="80" y="380" as="targetPoint" />
            <Array as="points">
              <mxPoint x="80" y="190" />
            </Array>
          </mxGeometry>
        </mxCell>
        <mxCell id="Y8lvot4BdXGDz-C8_BpI-65" value="" style="curved=1;endArrow=none;html=1;rounded=0;endFill=0;" edge="1" parent="1">
          <mxGeometry width="50" height="50" relative="1" as="geometry">
            <mxPoint x="470" y="200" as="sourcePoint" />
            <mxPoint x="470" y="180" as="targetPoint" />
            <Array as="points">
              <mxPoint x="500" y="190" />
            </Array>
          </mxGeometry>
        </mxCell>
        <mxCell id="Y8lvot4BdXGDz-C8_BpI-66" value="" style="endArrow=none;html=1;rounded=0;exitX=0.877;exitY=0.069;exitDx=0;exitDy=0;exitPerimeter=0;" edge="1" parent="1" source="Y8lvot4BdXGDz-C8_BpI-20">
          <mxGeometry width="50" height="50" relative="1" as="geometry">
            <mxPoint x="470" y="210" as="sourcePoint" />
            <mxPoint x="470" y="200" as="targetPoint" />
          </mxGeometry>
        </mxCell>
        <mxCell id="Y8lvot4BdXGDz-C8_BpI-67" value="" style="edgeStyle=segmentEdgeStyle;endArrow=classic;html=1;curved=0;rounded=0;endSize=8;startSize=8;exitX=0.759;exitY=1.042;exitDx=0;exitDy=0;exitPerimeter=0;" edge="1" parent="1" target="Y8lvot4BdXGDz-C8_BpI-55">
          <mxGeometry width="50" height="50" relative="1" as="geometry">
            <mxPoint x="856.25" y="331.44000000000005" as="sourcePoint" />
            <mxPoint x="144.78999999999996" y="380.00000000000006" as="targetPoint" />
            <Array as="points">
              <mxPoint x="856" y="360" />
              <mxPoint x="90" y="360" />
            </Array>
          </mxGeometry>
        </mxCell>
        <mxCell id="Y8lvot4BdXGDz-C8_BpI-68" value="" style="edgeStyle=segmentEdgeStyle;endArrow=classic;html=1;curved=0;rounded=0;endSize=8;startSize=8;exitX=0.496;exitY=1.006;exitDx=0;exitDy=0;exitPerimeter=0;" edge="1" parent="1" source="Y8lvot4BdXGDz-C8_BpI-63" target="Y8lvot4BdXGDz-C8_BpI-55">
          <mxGeometry width="50" height="50" relative="1" as="geometry">
            <mxPoint x="1341" y="341" as="sourcePoint" />
            <mxPoint x="670" y="380" as="targetPoint" />
            <Array as="points">
              <mxPoint x="1219" y="360" />
              <mxPoint x="90" y="360" />
            </Array>
          </mxGeometry>
        </mxCell>
        <mxCell id="pudL2_MrnGc8sDvLhz42-1" value="&lt;font style=&quot;font-size: 15px;&quot;&gt;Solicitação={&lt;u&gt;ID&lt;/u&gt;,&amp;nbsp;Hospital*, Receptor*, Data*}&lt;/font&gt;" style="text;html=1;align=center;verticalAlign=middle;resizable=0;points=[];autosize=1;strokeColor=none;fillColor=none;" vertex="1" parent="1">
          <mxGeometry x="760" y="220" width="320" height="30" as="geometry" />
        </mxCell>
        <mxCell id="pudL2_MrnGc8sDvLhz42-2" value="&lt;font style=&quot;font-size: 15px;&quot;&gt;Socorrimento={&lt;u&gt;ID&lt;/u&gt;, Ambulância*, Receptor*, Data*}&lt;/font&gt;" style="text;html=1;align=center;verticalAlign=middle;resizable=0;points=[];autosize=1;strokeColor=none;fillColor=none;" vertex="1" parent="1">
          <mxGeometry x="1100" y="220" width="360" height="30" as="geometry" />
        </mxCell>
        <mxCell id="pudL2_MrnGc8sDvLhz42-3" value="" style="endArrow=none;html=1;rounded=0;shape=link;strokeWidth=1;startSize=1;width=3;entryX=0.953;entryY=0.989;entryDx=0;entryDy=0;entryPerimeter=0;" edge="1" parent="1" target="pudL2_MrnGc8sDvLhz42-1">
          <mxGeometry relative="1" as="geometry">
            <mxPoint x="880" y="250" as="sourcePoint" />
            <mxPoint x="1047.1000000000001" y="250.72000000000003" as="targetPoint" />
            <Array as="points" />
          </mxGeometry>
        </mxCell>
        <mxCell id="pudL2_MrnGc8sDvLhz42-4" value="" style="endArrow=none;html=1;rounded=0;shape=link;strokeWidth=1;startSize=1;width=3;entryX=0.956;entryY=0.968;entryDx=0;entryDy=0;entryPerimeter=0;" edge="1" parent="1" target="pudL2_MrnGc8sDvLhz42-2">
          <mxGeometry relative="1" as="geometry">
            <mxPoint x="1230" y="250" as="sourcePoint" />
            <mxPoint x="1420" y="249.52" as="targetPoint" />
            <Array as="points" />
          </mxGeometry>
        </mxCell>
        <mxCell id="pudL2_MrnGc8sDvLhz42-6" value="" style="shape=curlyBracket;whiteSpace=wrap;html=1;rounded=1;labelPosition=left;verticalLabelPosition=middle;align=right;verticalAlign=middle;direction=north;" vertex="1" parent="1">
          <mxGeometry x="880" y="260" width="60" height="10" as="geometry" />
        </mxCell>
        <mxCell id="pudL2_MrnGc8sDvLhz42-10" value="" style="edgeStyle=segmentEdgeStyle;endArrow=classic;html=1;curved=0;rounded=0;endSize=8;startSize=8;exitX=0.1;exitY=0.5;exitDx=0;exitDy=0;exitPerimeter=0;" edge="1" parent="1" source="pudL2_MrnGc8sDvLhz42-6" target="Y8lvot4BdXGDz-C8_BpI-62">
          <mxGeometry width="50" height="50" relative="1" as="geometry">
            <mxPoint x="980" y="300" as="sourcePoint" />
            <mxPoint x="920" y="290" as="targetPoint" />
            <Array as="points">
              <mxPoint x="910" y="280" />
              <mxPoint x="860" y="280" />
            </Array>
          </mxGeometry>
        </mxCell>
        <mxCell id="pudL2_MrnGc8sDvLhz42-11" value="" style="shape=curlyBracket;whiteSpace=wrap;html=1;rounded=1;labelPosition=left;verticalLabelPosition=middle;align=right;verticalAlign=middle;direction=north;" vertex="1" parent="1">
          <mxGeometry x="1240" y="260" width="80" height="10" as="geometry" />
        </mxCell>
        <mxCell id="pudL2_MrnGc8sDvLhz42-12" value="" style="edgeStyle=segmentEdgeStyle;endArrow=classic;html=1;curved=0;rounded=0;endSize=8;startSize=8;exitX=0.1;exitY=0.5;exitDx=0;exitDy=0;exitPerimeter=0;" edge="1" parent="1" source="pudL2_MrnGc8sDvLhz42-11" target="Y8lvot4BdXGDz-C8_BpI-63">
          <mxGeometry width="50" height="50" relative="1" as="geometry">
            <mxPoint x="1330" y="300" as="sourcePoint" />
            <mxPoint x="1200" y="300" as="targetPoint" />
            <Array as="points">
              <mxPoint x="1280" y="280" />
              <mxPoint x="1220" y="280" />
            </Array>
          </mxGeometry>
        </mxCell>
        <mxCell id="pudL2_MrnGc8sDvLhz42-17" value="" style="shape=curlyBracket;whiteSpace=wrap;html=1;rounded=1;labelPosition=left;verticalLabelPosition=middle;align=right;verticalAlign=middle;direction=north;" vertex="1" parent="1">
          <mxGeometry x="1360" y="150" width="80" height="10" as="geometry" />
        </mxCell>
        <mxCell id="pudL2_MrnGc8sDvLhz42-18" value="" style="edgeStyle=segmentEdgeStyle;endArrow=classic;html=1;curved=0;rounded=0;endSize=8;startSize=8;exitX=0.1;exitY=0.5;exitDx=0;exitDy=0;exitPerimeter=0;" edge="1" parent="1" source="pudL2_MrnGc8sDvLhz42-17" target="pudL2_MrnGc8sDvLhz42-1">
          <mxGeometry width="50" height="50" relative="1" as="geometry">
            <mxPoint x="1460" y="190" as="sourcePoint" />
            <mxPoint x="1360" y="200" as="targetPoint" />
            <Array as="points">
              <mxPoint x="1400" y="180" />
              <mxPoint x="870" y="180" />
            </Array>
          </mxGeometry>
        </mxCell>
        <mxCell id="pudL2_MrnGc8sDvLhz42-19" value="" style="shape=curlyBracket;whiteSpace=wrap;html=1;rounded=1;labelPosition=left;verticalLabelPosition=middle;align=right;verticalAlign=middle;direction=north;" vertex="1" parent="1">
          <mxGeometry x="1445" y="150" width="85" height="10" as="geometry" />
        </mxCell>
        <mxCell id="pudL2_MrnGc8sDvLhz42-27" value="" style="shape=curlyBracket;whiteSpace=wrap;html=1;rounded=1;labelPosition=left;verticalLabelPosition=middle;align=right;verticalAlign=middle;direction=north;" vertex="1" parent="1">
          <mxGeometry x="1330" y="260" width="70" height="10" as="geometry" />
        </mxCell>
        <mxCell id="pudL2_MrnGc8sDvLhz42-28" value="" style="edgeStyle=segmentEdgeStyle;endArrow=classic;html=1;curved=0;rounded=0;endSize=8;startSize=8;exitX=0.1;exitY=0.5;exitDx=0;exitDy=0;exitPerimeter=0;entryX=0.34;entryY=0.005;entryDx=0;entryDy=0;entryPerimeter=0;" edge="1" parent="1" source="pudL2_MrnGc8sDvLhz42-19" target="pudL2_MrnGc8sDvLhz42-2">
          <mxGeometry width="50" height="50" relative="1" as="geometry">
            <mxPoint x="1590" y="170" as="sourcePoint" />
            <mxPoint x="1060" y="231" as="targetPoint" />
            <Array as="points">
              <mxPoint x="1487" y="191" />
              <mxPoint x="1222" y="191" />
              <mxPoint x="1222" y="220" />
            </Array>
          </mxGeometry>
        </mxCell>
        <mxCell id="pudL2_MrnGc8sDvLhz42-32" value="" style="edgeStyle=segmentEdgeStyle;endArrow=classic;html=1;curved=0;rounded=0;endSize=8;startSize=8;exitX=0.1;exitY=0.5;exitDx=0;exitDy=0;exitPerimeter=0;" edge="1" parent="1" source="pudL2_MrnGc8sDvLhz42-27" target="Y8lvot4BdXGDz-C8_BpI-18">
          <mxGeometry width="50" height="50" relative="1" as="geometry">
            <mxPoint x="1370" y="290" as="sourcePoint" />
            <mxPoint x="1420" y="240" as="targetPoint" />
            <Array as="points">
              <mxPoint x="1365" y="280" />
              <mxPoint x="1700" y="280" />
            </Array>
          </mxGeometry>
        </mxCell>
        <mxCell id="pudL2_MrnGc8sDvLhz42-33" value="" style="curved=1;endArrow=none;html=1;rounded=0;endFill=0;" edge="1" parent="1">
          <mxGeometry width="50" height="50" relative="1" as="geometry">
            <mxPoint x="980" y="370" as="sourcePoint" />
            <mxPoint x="980" y="350" as="targetPoint" />
            <Array as="points">
              <mxPoint x="1010" y="360" />
            </Array>
          </mxGeometry>
        </mxCell>
        <mxCell id="pudL2_MrnGc8sDvLhz42-35" style="edgeStyle=orthogonalEdgeStyle;rounded=0;orthogonalLoop=1;jettySize=auto;html=1;exitX=0.1;exitY=0.5;exitDx=0;exitDy=0;exitPerimeter=0;endArrow=none;endFill=0;" edge="1" parent="1" source="pudL2_MrnGc8sDvLhz42-34">
          <mxGeometry relative="1" as="geometry">
            <mxPoint x="980.0344827586207" y="350" as="targetPoint" />
          </mxGeometry>
        </mxCell>
        <mxCell id="pudL2_MrnGc8sDvLhz42-34" value="" style="shape=curlyBracket;whiteSpace=wrap;html=1;rounded=1;labelPosition=left;verticalLabelPosition=middle;align=right;verticalAlign=middle;direction=north;" vertex="1" parent="1">
          <mxGeometry x="950" y="260" width="60" height="10" as="geometry" />
        </mxCell>
        <mxCell id="pudL2_MrnGc8sDvLhz42-36" value="" style="edgeStyle=segmentEdgeStyle;endArrow=classic;html=1;curved=0;rounded=0;endSize=8;startSize=8;" edge="1" parent="1" target="Y8lvot4BdXGDz-C8_BpI-18">
          <mxGeometry width="50" height="50" relative="1" as="geometry">
            <mxPoint x="980" y="370" as="sourcePoint" />
            <mxPoint x="1315" y="257" as="targetPoint" />
            <Array as="points">
              <mxPoint x="980" y="390" />
              <mxPoint x="1700" y="390" />
            </Array>
          </mxGeometry>
        </mxCell>
        <mxCell id="pudL2_MrnGc8sDvLhz42-37" value="&lt;font style=&quot;font-size: 15px;&quot;&gt;Transferência={&lt;u&gt;ID&lt;/u&gt;, Local_origem*, Local_destino*, Data*}&amp;nbsp;&amp;nbsp;&lt;/font&gt;" style="text;html=1;align=center;verticalAlign=middle;resizable=0;points=[];autosize=1;strokeColor=none;fillColor=none;" vertex="1" parent="1">
          <mxGeometry x="550" y="380" width="410" height="30" as="geometry" />
        </mxCell>
        <mxCell id="pudL2_MrnGc8sDvLhz42-38" value="" style="endArrow=none;html=1;rounded=0;shape=link;strokeWidth=1;startSize=1;width=3;" edge="1" parent="1">
          <mxGeometry relative="1" as="geometry">
            <mxPoint x="690" y="409.6" as="sourcePoint" />
            <mxPoint x="930" y="409.6" as="targetPoint" />
            <Array as="points" />
          </mxGeometry>
        </mxCell>
        <mxCell id="pudL2_MrnGc8sDvLhz42-46" value="" style="shape=curlyBracket;whiteSpace=wrap;html=1;rounded=1;labelPosition=left;verticalLabelPosition=middle;align=right;verticalAlign=middle;direction=north;" vertex="1" parent="1">
          <mxGeometry x="690" y="420.17" width="90" height="10" as="geometry" />
        </mxCell>
        <mxCell id="pudL2_MrnGc8sDvLhz42-47" value="" style="shape=curlyBracket;whiteSpace=wrap;html=1;rounded=1;labelPosition=left;verticalLabelPosition=middle;align=right;verticalAlign=middle;direction=north;" vertex="1" parent="1">
          <mxGeometry x="790" y="420.17" width="100" height="10" as="geometry" />
        </mxCell>
        <mxCell id="pudL2_MrnGc8sDvLhz42-48" value="" style="edgeStyle=segmentEdgeStyle;endArrow=classic;html=1;curved=0;rounded=0;endSize=8;startSize=8;exitX=0.1;exitY=0.5;exitDx=0;exitDy=0;exitPerimeter=0;" edge="1" parent="1" source="pudL2_MrnGc8sDvLhz42-46">
          <mxGeometry width="50" height="50" relative="1" as="geometry">
            <mxPoint x="350" y="470" as="sourcePoint" />
            <mxPoint x="80" y="410" as="targetPoint" />
            <Array as="points">
              <mxPoint x="735" y="440" />
              <mxPoint x="80" y="440" />
              <mxPoint x="80" y="410" />
            </Array>
          </mxGeometry>
        </mxCell>
        <mxCell id="pudL2_MrnGc8sDvLhz42-49" value="" style="edgeStyle=segmentEdgeStyle;endArrow=classic;html=1;curved=0;rounded=0;endSize=8;startSize=8;exitX=0.1;exitY=0.5;exitDx=0;exitDy=0;exitPerimeter=0;" edge="1" parent="1" source="pudL2_MrnGc8sDvLhz42-47" target="Y8lvot4BdXGDz-C8_BpI-55">
          <mxGeometry width="50" height="50" relative="1" as="geometry">
            <mxPoint x="805" y="430" as="sourcePoint" />
            <mxPoint x="80" y="440" as="targetPoint" />
            <Array as="points">
              <mxPoint x="840" y="440" />
              <mxPoint x="80" y="440" />
            </Array>
          </mxGeometry>
        </mxCell>
        <mxCell id="pudL2_MrnGc8sDvLhz42-50" value="&lt;font style=&quot;font-size: 15px;&quot;&gt;Inventário={Local, Fator_RH, Fator_ABO, Fator_Ee, Fator_Cc, Fator_K, Estoque*}&amp;nbsp;&lt;/font&gt;" style="text;html=1;align=center;verticalAlign=middle;resizable=0;points=[];autosize=1;strokeColor=none;fillColor=none;" vertex="1" parent="1">
          <mxGeometry x="5" y="480" width="580" height="30" as="geometry" />
        </mxCell>
        <mxCell id="pudL2_MrnGc8sDvLhz42-51" value="" style="line;strokeWidth=2;html=1;" vertex="1" parent="1">
          <mxGeometry x="100" y="500" width="400" height="10" as="geometry" />
        </mxCell>
        <mxCell id="pudL2_MrnGc8sDvLhz42-54" value="" style="shape=curlyBracket;whiteSpace=wrap;html=1;rounded=1;labelPosition=left;verticalLabelPosition=middle;align=right;verticalAlign=middle;direction=south;" vertex="1" parent="1">
          <mxGeometry x="100" y="470" width="40" height="10" as="geometry" />
        </mxCell>
        <mxCell id="pudL2_MrnGc8sDvLhz42-56" value="&lt;font style=&quot;font-size: 15px;&quot;&gt;Nro_bolsas={Transferência, Fator_RH, Fator_ABO, Fator_Ee, Fator_Cc, Fator_K, Quantidade*}&amp;nbsp;&lt;/font&gt;" style="text;html=1;align=center;verticalAlign=middle;resizable=0;points=[];autosize=1;strokeColor=none;fillColor=none;" vertex="1" parent="1">
          <mxGeometry x="865" y="480" width="660" height="30" as="geometry" />
        </mxCell>
        <mxCell id="pudL2_MrnGc8sDvLhz42-57" value="" style="line;strokeWidth=2;html=1;" vertex="1" parent="1">
          <mxGeometry x="970" y="502.25" width="450" height="10" as="geometry" />
        </mxCell>
        <mxCell id="pudL2_MrnGc8sDvLhz42-58" value="" style="shape=curlyBracket;whiteSpace=wrap;html=1;rounded=1;labelPosition=left;verticalLabelPosition=middle;align=right;verticalAlign=middle;direction=south;" vertex="1" parent="1">
          <mxGeometry x="950" y="470" width="90" height="10" as="geometry" />
        </mxCell>
        <mxCell id="pudL2_MrnGc8sDvLhz42-59" value="" style="edgeStyle=segmentEdgeStyle;endArrow=none;html=1;curved=0;rounded=0;endSize=8;startSize=8;exitX=0.1;exitY=0.5;exitDx=0;exitDy=0;exitPerimeter=0;endFill=0;" edge="1" parent="1" source="pudL2_MrnGc8sDvLhz42-58">
          <mxGeometry width="50" height="50" relative="1" as="geometry">
            <mxPoint x="990" y="440" as="sourcePoint" />
            <mxPoint x="670" y="450" as="targetPoint" />
            <Array as="points">
              <mxPoint x="995" y="460" />
              <mxPoint x="670" y="460" />
            </Array>
          </mxGeometry>
        </mxCell>
        <mxCell id="pudL2_MrnGc8sDvLhz42-60" value="" style="curved=1;endArrow=none;html=1;rounded=0;endFill=0;" edge="1" parent="1">
          <mxGeometry width="50" height="50" relative="1" as="geometry">
            <mxPoint x="670" y="450.17" as="sourcePoint" />
            <mxPoint x="670" y="430.17" as="targetPoint" />
            <Array as="points">
              <mxPoint x="700" y="440.17" />
            </Array>
          </mxGeometry>
        </mxCell>
        <mxCell id="pudL2_MrnGc8sDvLhz42-61" value="" style="endArrow=classic;html=1;rounded=0;entryX=0.291;entryY=0.945;entryDx=0;entryDy=0;entryPerimeter=0;" edge="1" parent="1" target="pudL2_MrnGc8sDvLhz42-37">
          <mxGeometry width="50" height="50" relative="1" as="geometry">
            <mxPoint x="670" y="430" as="sourcePoint" />
            <mxPoint x="720" y="380" as="targetPoint" />
          </mxGeometry>
        </mxCell>
        <mxCell id="hAiok2hoCGUtveRIg8li-1" value="1" style="ellipse;whiteSpace=wrap;html=1;aspect=fixed;" vertex="1" parent="1">
          <mxGeometry x="80" y="83.5" width="14.5" height="14.5" as="geometry" />
        </mxCell>
        <mxCell id="hAiok2hoCGUtveRIg8li-4" value="2" style="ellipse;whiteSpace=wrap;html=1;aspect=fixed;" vertex="1" parent="1">
          <mxGeometry x="197.75" y="128" width="14.5" height="14.5" as="geometry" />
        </mxCell>
        <mxCell id="hAiok2hoCGUtveRIg8li-5" value="3" style="ellipse;whiteSpace=wrap;html=1;aspect=fixed;fillColor=light-dark(#FFFFFF,transparent);" vertex="1" parent="1">
          <mxGeometry x="584.5" y="120" width="15.5" height="15.5" as="geometry" />
        </mxCell>
        <mxCell id="hAiok2hoCGUtveRIg8li-6" value="8" style="ellipse;whiteSpace=wrap;html=1;aspect=fixed;" vertex="1" parent="1">
          <mxGeometry x="1400" y="170" width="14.5" height="14.5" as="geometry" />
        </mxCell>
        <mxCell id="hAiok2hoCGUtveRIg8li-9" value="10" style="ellipse;whiteSpace=wrap;html=1;aspect=fixed;fillColor=light-dark(#FFFFFF,#1B1C1D);" vertex="1" parent="1">
          <mxGeometry x="480" y="205.5" width="14.5" height="14.5" as="geometry" />
        </mxCell>
        <mxCell id="hAiok2hoCGUtveRIg8li-10" value="9" style="ellipse;whiteSpace=wrap;html=1;aspect=fixed;fillColor=light-dark(#FFFFFF,transparent);" vertex="1" parent="1">
          <mxGeometry x="1490" y="170" width="14.5" height="14.5" as="geometry" />
        </mxCell>
        <mxCell id="hAiok2hoCGUtveRIg8li-11" value="12" style="ellipse;whiteSpace=wrap;html=1;aspect=fixed;" vertex="1" parent="1">
          <mxGeometry x="1065.5" y="250" width="14.5" height="14.5" as="geometry" />
        </mxCell>
        <mxCell id="hAiok2hoCGUtveRIg8li-12" value="13" style="ellipse;whiteSpace=wrap;html=1;aspect=fixed;" vertex="1" parent="1">
          <mxGeometry x="1445.5" y="247.75" width="14.5" height="14.5" as="geometry" />
        </mxCell>
        <mxCell id="hAiok2hoCGUtveRIg8li-14" value="14" style="ellipse;whiteSpace=wrap;html=1;aspect=fixed;" vertex="1" parent="1">
          <mxGeometry x="100" y="365.5" width="14.5" height="14.5" as="geometry" />
        </mxCell>
        <mxCell id="hAiok2hoCGUtveRIg8li-17" value="15" style="ellipse;whiteSpace=wrap;html=1;aspect=fixed;" vertex="1" parent="1">
          <mxGeometry x="940" y="405.67" width="14.5" height="14.5" as="geometry" />
        </mxCell>
        <mxCell id="hAiok2hoCGUtveRIg8li-18" value="16" style="ellipse;whiteSpace=wrap;html=1;aspect=fixed;" vertex="1" parent="1">
          <mxGeometry x="570" y="487.75" width="14.5" height="14.5" as="geometry" />
        </mxCell>
        <mxCell id="bm1N-Zmu4VdTA1cOkZpr-3" value="11" style="ellipse;whiteSpace=wrap;html=1;aspect=fixed;fillColor=light-dark(#FFFFFF,#1B1C1D);" vertex="1" parent="1">
          <mxGeometry x="420" y="235.5" width="14.5" height="14.5" as="geometry" />
        </mxCell>
        <mxCell id="bm1N-Zmu4VdTA1cOkZpr-4" value="17" style="ellipse;whiteSpace=wrap;html=1;aspect=fixed;" vertex="1" parent="1">
          <mxGeometry x="1510.5" y="487.75" width="14.5" height="14.5" as="geometry" />
        </mxCell>
        <mxCell id="bm1N-Zmu4VdTA1cOkZpr-5" value="4" style="ellipse;whiteSpace=wrap;html=1;aspect=fixed;" vertex="1" parent="1">
          <mxGeometry x="780" y="155.5" width="14.5" height="14.5" as="geometry" />
        </mxCell>
        <mxCell id="1CfI6ieswPqQ5rxWnJSo-1" value="5" style="ellipse;whiteSpace=wrap;html=1;aspect=fixed;" vertex="1" parent="1">
          <mxGeometry x="935.5" y="120" width="14.5" height="14.5" as="geometry" />
        </mxCell>
        <mxCell id="1CfI6ieswPqQ5rxWnJSo-3" value="6" style="ellipse;whiteSpace=wrap;html=1;aspect=fixed;" vertex="1" parent="1">
          <mxGeometry x="987.75" y="120" width="14.5" height="14.5" as="geometry" />
        </mxCell>
        <mxCell id="1CfI6ieswPqQ5rxWnJSo-4" value="7" style="ellipse;whiteSpace=wrap;html=1;aspect=fixed;" vertex="1" parent="1">
          <mxGeometry x="1357.75" y="115.5" width="14.5" height="14.5" as="geometry" />
        </mxCell>
        <mxCell id="1CfI6ieswPqQ5rxWnJSo-9" value="" style="rounded=0;whiteSpace=wrap;html=1;" vertex="1" parent="1">
          <mxGeometry x="30" y="555" width="740" height="165" as="geometry" />
        </mxCell>
        <mxCell id="1CfI6ieswPqQ5rxWnJSo-10" value="&lt;font style=&quot;font-size: 18px;&quot;&gt;&lt;b&gt;&lt;u&gt;Legenda&lt;/u&gt;&lt;/b&gt;&lt;/font&gt;" style="text;strokeColor=none;align=center;fillColor=none;html=1;verticalAlign=middle;whiteSpace=wrap;rounded=0;" vertex="1" parent="1">
          <mxGeometry x="70" y="570" width="60" height="30" as="geometry" />
        </mxCell>
        <mxCell id="1CfI6ieswPqQ5rxWnJSo-11" value="&lt;font style=&quot;font-size: 15px;&quot;&gt;1&lt;/font&gt;" style="ellipse;whiteSpace=wrap;html=1;aspect=fixed;" vertex="1" parent="1">
          <mxGeometry x="60" y="680" width="30" height="30" as="geometry" />
        </mxCell>
        <mxCell id="1CfI6ieswPqQ5rxWnJSo-12" value="&lt;font style=&quot;font-size: 18px;&quot;&gt;Sessão 5.1&lt;/font&gt;" style="text;strokeColor=none;align=center;fillColor=none;html=1;verticalAlign=middle;whiteSpace=wrap;rounded=0;" vertex="1" parent="1">
          <mxGeometry x="100" y="680" width="110" height="30" as="geometry" />
        </mxCell>
        <mxCell id="1CfI6ieswPqQ5rxWnJSo-13" value="&lt;font style=&quot;font-size: 18px;&quot;&gt;&lt;u&gt;&lt;b&gt;Exemplo:&lt;/b&gt;&lt;/u&gt;&lt;/font&gt;" style="text;strokeColor=none;align=center;fillColor=none;html=1;verticalAlign=middle;whiteSpace=wrap;rounded=0;" vertex="1" parent="1">
          <mxGeometry x="45" y="650" width="110" height="30" as="geometry" />
        </mxCell>
        <mxCell id="1CfI6ieswPqQ5rxWnJSo-14" value="&lt;font style=&quot;font-size: 18px;&quot;&gt;Os círculos numerados representam a sessão de explicação do mapeamento presente na documentação do modelo relacional&lt;/font&gt;" style="text;strokeColor=none;align=left;fillColor=none;html=1;verticalAlign=middle;whiteSpace=wrap;rounded=0;" vertex="1" parent="1">
          <mxGeometry x="60" y="610" width="710" height="30" as="geometry" />
        </mxCell>
        <mxCell id="hE2R8RdYAlJC9OmlTrnR-1" value="" style="endArrow=none;html=1;rounded=0;shape=link;strokeWidth=1;startSize=1;width=5.961538461538462;" edge="1" parent="1">
          <mxGeometry relative="1" as="geometry">
            <mxPoint x="155" y="72.5" as="sourcePoint" />
            <mxPoint x="185" y="72.25" as="targetPoint" />
            <Array as="points" />
          </mxGeometry>
        </mxCell>
        <mxCell id="hE2R8RdYAlJC9OmlTrnR-2" value="" style="endArrow=none;html=1;rounded=0;" edge="1" parent="1">
          <mxGeometry width="50" height="50" relative="1" as="geometry">
            <mxPoint x="155" y="72.5" as="sourcePoint" />
            <mxPoint x="185" y="72.5" as="targetPoint" />
          </mxGeometry>
        </mxCell>
        <mxCell id="hE2R8RdYAlJC9OmlTrnR-5" value="" style="endArrow=none;html=1;rounded=0;shape=link;strokeWidth=1;startSize=1;width=3;" edge="1" parent="1">
          <mxGeometry relative="1" as="geometry">
            <mxPoint x="100" y="405.67" as="sourcePoint" />
            <mxPoint x="180" y="406" as="targetPoint" />
            <Array as="points" />
          </mxGeometry>
        </mxCell>
        <mxCell id="hE2R8RdYAlJC9OmlTrnR-6" value="" style="endArrow=none;html=1;rounded=0;shape=link;strokeWidth=1;startSize=1;width=3;entryX=0.727;entryY=0.986;entryDx=0;entryDy=0;entryPerimeter=0;" edge="1" parent="1">
          <mxGeometry relative="1" as="geometry">
            <mxPoint x="1240" y="339.71999999999997" as="sourcePoint" />
            <mxPoint x="1269.94" y="339.71999999999997" as="targetPoint" />
            <Array as="points" />
          </mxGeometry>
        </mxCell>
        <mxCell id="hE2R8RdYAlJC9OmlTrnR-7" value="" style="edgeStyle=segmentEdgeStyle;endArrow=classic;html=1;curved=0;rounded=0;endSize=8;startSize=8;exitX=0.1;exitY=0.5;exitDx=0;exitDy=0;exitPerimeter=0;" edge="1" parent="1" source="pudL2_MrnGc8sDvLhz42-54">
          <mxGeometry width="50" height="50" relative="1" as="geometry">
            <mxPoint x="120" y="470" as="sourcePoint" />
            <mxPoint x="80" y="410" as="targetPoint" />
            <Array as="points">
              <mxPoint x="120" y="440" />
              <mxPoint x="80" y="440" />
            </Array>
          </mxGeometry>
        </mxCell>
      </root>
    </mxGraphModel>
  </diagram>
</mxfile>
